<svg xmlns="http://www.w3.org/2000/svg" viewBox="0 0 512 512" role="img" aria-label="Sourdough">
  <rect width="512" height="512" rx="96" fill="#faf6f0"/>
  <ellipse cx="256" cy="300" rx="168" ry="118" fill="#d4a574"/>
  <ellipse cx="256" cy="278" rx="148" ry="98" fill="#e8c9a0"/>
  <path d="M140 260c28-72 88-118 116-118s88 46 116 118" fill="none" stroke="#8b6914" stroke-width="10" stroke-linecap="round"/>
  <circle cx="200" cy="210" r="14" fill="#6b4f3a" opacity="0.35"/>
  <circle cx="256" cy="195" r="12" fill="#6b4f3a" opacity="0.3"/>
  <circle cx="312" cy="210" r="14" fill="#6b4f3a" opacity="0.35"/>
  <path d="M256 120c-8 0-14 6-14 14v24c0 8 6 14 14 14s14-6 14-14v-24c0-8-6-14-14-14z" fill="#b8956a"/>
  <ellipse cx="256" cy="118" rx="52" ry="28" fill="#c9a87c"/>
</svg>
